<svg height="512pt" viewBox="-72 0 512 512" width="512pt" xmlns="http://www.w3.org/2000/svg"><path d="m76.664062 180.058594h-66.765624c-1.324219 0-2.398438-1.074219-2.398438-2.398438v-38.511718c0-1.328126 1.074219-2.398438 2.398438-2.398438h66.765624zm0 0" fill="#ffa726"/><path d="m275.195312 178.480469h21.9375c1.597657 0 2.890626-1.296875 2.890626-2.894531v-34.367188c0-1.597656-1.292969-2.894531-2.890626-2.894531h-21.9375zm0 0" fill="#ef5350"/><path d="m274.472656 180.058594h-143.699218v-43.308594h143.699218c.398438 0 .722656.320312.722656.722656v41.863282c0 .398437-.324218.722656-.722656.722656zm0 0" fill="#cfd8dc"/><path d="m76.664062 160.058594h-69.164062v17.601562c0 1.324219 1.074219 2.398438 2.398438 2.398438h66.765624zm0 0" fill="#f57c00"/><path d="m274.472656 136.746094h-39.277344v7.089844c0 8.960937-7.261718 16.222656-16.222656 16.222656h-88.199218v20h143.699218c.398438 0 .722656-.324219.722656-.722656v-41.867188c0-.398438-.324218-.722656-.722656-.722656zm0 0" fill="#90a4ae"/><path d="m293.039062 369.769531c-37.203124 0-67.363281 30.160157-67.363281 67.363281 0 15.101563 4.964844 29.039063 13.355469 40.273438-22.613281 17.011719-50.734375 27.09375-81.214844 27.09375-74.679687 0-135.21875-60.539062-135.21875-135.222656v-45.226563c0-14.9375 12.105469-27.042969 27.042969-27.042969h27.042969v32.875-197.832031c0-14.9375 12.109375-27.042969 27.042968-27.042969 14.9375 0 27.046876 12.105469 27.046876 27.042969v157.160157-109.152344h54.085937v109.15625-84.03125h27.046875c14.933594 0 27.042969 12.105468 27.042969 27.042968v56.988282-56.988282h27.042969c14.9375 0 27.042968 12.109376 27.042968 27.042969zm0 0" fill="#ffab91"/><path d="m253.039062 349.277344c0 13.25-1.914062 26.054687-5.46875 38.15625 11.984376-10.96875 27.945313-17.664063 45.46875-17.664063v-110.5c0-14.9375-12.105468-27.042969-27.042968-27.042969h-12.957032zm0 0" fill="#ff7043"/><path d="m225.675781 437.132812c0-2.273437.113281-4.519531.335938-6.734374-24.671875 32.851562-63.949219 54.101562-108.195313 54.101562-13.765625 0-27.050781-2.0625-39.566406-5.886719 22.328125 16.273438 49.824219 25.886719 79.566406 25.886719 30.480469 0 58.601563-10.082031 81.214844-27.09375-8.390625-11.234375-13.355469-25.171875-13.355469-40.273438zm0 0" fill="#ff7043"/><path d="m184.863281 136.746094v-14.457032c0-14.9375-12.109375-27.042968-27.042969-27.042968-14.9375 0-27.046874 12.105468-27.046874 27.042968v14.457032zm0 0" fill="#ffab91"/><path d="m225.675781 437.132812c0 37.207032 30.160157 67.367188 67.363281 67.367188 37.207032 0 67.367188-30.160156 67.367188-67.367188 0-37.203124-30.160156-67.363281-67.367188-67.363281-37.203124 0-67.363281 30.160157-67.363281 67.363281zm0 0" fill="#ef5350"/><path d="m301.445312 370.308594c11.730469 12.125 18.960938 28.625 18.960938 46.824218 0 37.207032-30.160156 67.367188-67.367188 67.367188-2.847656 0-5.648437-.195312-8.40625-.539062 12.25 12.65625 29.402344 20.539062 48.40625 20.539062 37.207032 0 67.367188-30.160156 67.367188-67.367188 0-34.355468-25.722656-62.683593-58.960938-66.824218zm0 0" fill="#d32f2f"/><path d="m327.652344 414.339844-11.816406-11.816406c-1.714844-1.714844-4.492188-1.714844-6.207032 0l-15.316406 15.316406c-.703125.699218-1.839844.699218-2.542969 0l-15.316406-15.316406c-1.714844-1.714844-4.492187-1.714844-6.207031 0l-11.816406 11.816406c-1.714844 1.714844-1.714844 4.492187 0 6.207031l15.316406 15.316406c.699218.703125.699218 1.839844 0 2.542969l-15.316406 15.316406c-1.714844 1.714844-1.714844 4.492188 0 6.207032l11.816406 11.816406c1.714844 1.714844 4.492187 1.714844 6.207031 0l15.316406-15.316406c.703125-.703126 1.839844-.703126 2.542969 0l15.316406 15.316406c1.714844 1.714844 4.492188 1.714844 6.207032 0l11.816406-11.816406c1.714844-1.714844 1.714844-4.492188 0-6.207032l-15.316406-15.316406c-.703126-.703125-.703126-1.839844 0-2.542969l15.316406-15.316406c1.710937-1.714844 1.710937-4.492187 0-6.207031zm0 0" fill="#fff"/><path d="m126.304688 74.753906h138.785156c8.28125 0 15.023437 6.738282 15.023437 15.019532v23.429687c0 4.140625 3.355469 7.5 7.5 7.5 4.140625 0 7.5-3.359375 7.5-7.5v-23.429687c0-16.550782-13.46875-30.019532-30.023437-30.019532h-138.785156c-4.3125 0-7.824219-3.511718-7.824219-7.824218 0-4.316407 3.511719-7.824219 7.824219-7.824219h100.917968c12.160156 0 22.054688-9.894531 22.054688-22.054688-.003906-12.15625-9.894532-22.050781-22.054688-22.050781h-12.347656c-4.144531 0-7.5 3.359375-7.5 7.5s3.355469 7.5 7.5 7.5h12.347656c3.890625 0 7.054688 3.164062 7.054688 7.054688 0 3.886718-3.164063 7.050781-7.054688 7.050781h-100.917968c-12.585938 0-22.824219 10.238281-22.824219 22.824219 0 12.585937 10.238281 22.824218 22.824219 22.824218zm0 0"/><path d="m126.742188 15h52.960937c4.140625 0 7.5-3.359375 7.5-7.5s-3.359375-7.5-7.5-7.5h-52.960937c-4.144532 0-7.5 3.359375-7.5 7.5s3.355468 7.5 7.5 7.5zm0 0"/><path d="m300.539062 362.644531v-103.375c0-19.046875-15.496093-34.542969-34.542968-34.542969h-20.363282c-3.4375-15.453124-17.253906-27.046874-33.726562-27.046874h-19.542969v-10.121094h19.160157c4.144531 0 7.5-3.359375 7.5-7.5 0-4.144532-3.355469-7.5-7.5-7.5h-73.25v-28.3125h129.421874v28.3125h-21.171874c-4.140626 0-7.5 3.355468-7.5 7.5 0 4.140625 3.359374 7.5 7.5 7.5h27.949218c1.804688 0 3.464844-.589844 4.824219-1.578125h17.835937c5.730469 0 10.394532-4.664063 10.394532-10.394531v-34.367188c0-5.730469-4.664063-10.394531-10.394532-10.394531h-17.835937c-1.355469-.984375-3.019531-1.578125-4.824219-1.578125h-82.109375v-6.957032c0-19.046874-15.496093-34.542968-34.546875-34.542968-13.398437 0-25.03125 7.675781-30.757812 18.855468-6.152344-5.644531-14.34375-9.09375-23.328125-9.09375-18.105469 0-32.992188 14-34.421875 31.742188h-59.410156c-5.457032 0-9.898438 4.4375-9.898438 9.898438v38.511718c0 5.457032 4.441406 9.898438 9.898438 9.898438h59.285156v55.726562c0 4.144532 3.359375 7.5 7.5 7.5 4.144531 0 7.5-3.355468 7.5-7.5v-111.234375c0-10.777343 8.769531-19.542969 19.546875-19.542969 10.777343 0 19.542969 8.765626 19.542969 19.542969v157.160157c0 4.144531 3.359374 7.5 7.5 7.5 4.144531 0 7.5-3.355469 7.5-7.5v-101.652344h39.089843v101.65625c0 4.140625 3.355469 7.5 7.5 7.5 4.140625 0 7.5-3.359375 7.5-7.5v-76.53125h19.542969c10.777344 0 19.542969 8.765625 19.542969 19.542968v56.988282c0 4.140625 3.359375 7.5 7.5 7.5 4.144531 0 7.5-3.359375 7.5-7.5v-49.488282h19.546875c10.777344 0 19.542968 8.765626 19.542968 19.542969v103.375c-37.773437 3.777344-67.363281 35.742188-67.363281 74.492188 0 14.003906 3.875 27.117187 10.59375 38.335937-21.011719 14.09375-45.386719 21.527344-70.953125 21.527344-34.113281 0-66.1875-13.285156-90.3125-37.410156-24.121094-24.121094-37.40625-56.195313-37.40625-90.3125v-45.226563c0-10.777343 8.765625-19.542969 19.542969-19.542969h19.546875v25.375c0 4.140626 3.355469 7.5 7.5 7.5 4.140625 0 7.5-3.359374 7.5-7.5v-51.597656c0-4.140625-3.359375-7.5-7.5-7.5-4.144531 0-7.5 3.359375-7.5 7.5v11.222656h-19.546875c-19.046875 0-34.542969 15.496094-34.542969 34.542969v45.226563c0 78.699218 64.023438 142.722656 142.71875 142.722656 28.816406 0 56.292969-8.4375 79.917969-24.460938 13.703125 15.019532 33.421875 24.460938 55.304687 24.460938 41.28125 0 74.867188-33.585938 74.867188-74.867188 0-38.75-29.59375-70.714843-67.367188-74.488281zm-8.015624-191.664062h-9.828126v-25.15625h9.828126zm-223.359376 1.578125h-54.164062v-28.308594h54.164062zm88.652344-69.8125c10.777344 0 19.546875 8.765625 19.546875 19.542968v6.957032h-39.089843v-6.957032c0-10.777343 8.769531-19.542968 19.542968-19.542968zm135.222656 394.253906c-33.007812 0-59.863281-26.855469-59.863281-59.867188 0-33.011718 26.855469-59.863281 59.863281-59.863281 33.011719 0 59.867188 26.855469 59.867188 59.863281 0 33.011719-26.855469 59.867188-59.867188 59.867188zm0 0"/><path d="m304.324219 477.050781-11.285157-11.285156-11.28125 11.285156c-4.640624 4.632813-12.179687 4.632813-16.816406 0l-11.816406-11.820312c-4.644531-4.640625-4.648438-12.164063 0-16.8125l11.285156-11.285157-11.285156-11.285156c-4.644531-4.644531-4.644531-12.164062 0-16.8125l11.816406-11.816406c4.648438-4.644531 12.164063-4.648438 16.8125 0l11.285156 11.285156 11.285157-11.285156c4.644531-4.644531 12.164062-4.648438 16.8125 0 12.769531 12.769531 11.820312 11.71875 11.820312 11.820312 4.632813 4.632813 4.632813 12.175782 0 16.808594l-11.285156 11.289063 11.28125 11.285156c4.636719 4.632813 4.636719 12.175781 0 16.808594l-11.816406 11.820312c-4.644531 4.644531-12.164063 4.644531-16.8125 0zm-38.390625-20.226562 7.414062 7.417969 13.117188-13.117188c3.625-3.621094 9.519531-3.621094 13.148437 0l13.117188 13.117188 7.417969-7.417969-13.117188-13.113281c-3.632812-3.632813-3.636719-9.515626 0-13.152344l13.117188-13.113282-7.417969-7.417968-13.117188 13.117187c-3.625 3.625-9.519531 3.625-13.144531 0l-13.121094-13.117187-7.414062 7.417968 13.117187 13.117188c3.632813 3.628906 3.632813 9.511719-.003906 13.148438zm0 0"/></svg>